<svg width="542" height="94" viewBox="0 0 542 94" fill="none" xmlns="http://www.w3.org/2000/svg">
  <path
    d="M151.681 6.91473C156.848 6.91473 161.424 7.72176 165.409 9.3358C169.468 10.8765 173.232 13.1141 176.701 16.0488L168.177 24.8527C165.446 22.7984 162.863 21.2944 160.427 20.3407C158.065 19.3869 155.372 18.91 152.346 18.91C146.515 18.91 141.792 21.2211 138.175 25.8431C134.633 30.3918 132.861 37.3616 132.861 46.7524C132.861 56.6568 134.227 63.7733 136.957 68.1019C139.762 72.3571 144.08 74.4847 149.91 74.4847C154.117 74.4847 157.918 73.5676 161.313 71.7335V53.1352H150.574L148.914 41.36H177.144V78.8866C173.158 81.3077 168.841 83.2152 164.191 84.6092C159.615 85.9298 154.966 86.5901 150.242 86.5901C138.95 86.5901 130.389 83.2152 124.558 76.4656C118.728 69.7159 115.812 59.7748 115.812 46.6423C115.812 38.352 117.399 31.1988 120.573 25.1828C123.746 19.1668 128.027 14.6181 133.415 11.5368C138.876 8.45541 144.965 6.91473 151.681 6.91473ZM201.568 86.5901C196.771 86.5901 193.044 85.2328 190.387 82.5182C187.73 79.7303 186.402 75.8053 186.402 70.743V3.28312L202.122 1.52234V70.3028C202.122 72.8706 203.192 74.1545 205.332 74.1545C206.513 74.1545 207.547 73.9344 208.432 73.4942L211.643 84.6092C208.617 85.9298 205.259 86.5901 201.568 86.5901ZM260.687 68.6521C260.687 70.9264 261.019 72.6139 261.683 73.7143C262.347 74.7415 263.454 75.5118 265.004 76.0254L261.683 86.37C258.214 86.0765 255.373 85.2695 253.159 83.9489C251.018 82.6283 249.358 80.5741 248.177 77.7861C244.339 83.6554 238.471 86.5901 230.575 86.5901C224.745 86.5901 220.095 84.9393 216.626 81.6379C213.231 78.263 211.534 73.8978 211.534 68.542C211.534 62.1592 213.859 57.2804 218.508 53.9056C223.158 50.5307 229.837 48.8433 238.545 48.8433H245.298V45.982C245.298 42.3871 244.487 39.8927 242.863 38.4987C241.239 37.1048 238.545 36.4078 234.781 36.4078C230.648 36.4078 225.483 37.4349 219.283 39.4892L215.741 29.0345C223.047 26.1733 230.28 24.7426 237.438 24.7426C245.409 24.7426 251.277 26.4667 255.041 29.9149C258.805 33.2898 260.687 38.352 260.687 45.1017V68.6521ZM234.892 75.3651C239.32 75.3651 242.789 73.2008 245.298 68.8722V57.7573H240.095C231.608 57.7573 227.365 60.912 227.365 67.2215C227.365 69.7893 227.992 71.8068 229.247 73.2741C230.575 74.6681 232.456 75.3651 234.892 75.3651ZM312.705 26.5034V37.6183L285.139 72.7239H313.258L311.708 84.8293H267.094V73.6043L294.66 38.4987H269.419V26.5034H312.705ZM368.754 54.3458C368.754 55.0794 368.644 57.097 368.422 60.3984H331.779C332.295 65.6808 333.734 69.4224 336.096 71.6234C338.458 73.8244 341.668 74.9249 345.728 74.9249C348.237 74.9249 350.599 74.5214 352.813 73.7143C355.027 72.9073 357.425 71.6234 360.009 69.8626L366.54 78.6665C359.972 83.9489 352.554 86.5901 344.288 86.5901C335.063 86.5901 327.978 83.8388 323.033 78.3364C318.088 72.834 315.615 65.3873 315.615 55.9965C315.615 50.0539 316.649 44.7348 318.715 40.0394C320.855 35.2706 323.918 31.529 327.904 28.8144C331.963 26.0999 336.76 24.7426 342.296 24.7426C350.635 24.7426 357.13 27.3471 361.78 32.5561C366.43 37.7651 368.754 45.0283 368.754 54.3458ZM353.145 49.9438C353.145 40.2595 349.639 35.4174 342.628 35.4174C339.38 35.4174 336.834 36.6279 334.989 39.049C333.218 41.3967 332.148 45.2484 331.779 50.6041H353.145V49.9438ZM460.728 8.67551L447.333 84.8293H426.188L415.56 25.2929L404.379 84.8293H383.787L370.503 8.67551H386.777L395.522 72.2837L407.146 8.67551H424.306L435.487 72.2837L445.34 8.67551H460.728ZM541.3 84.8293H525.358L523.697 53.9056C523.181 44.6615 522.922 36.8113 522.922 30.3551C522.922 26.9069 522.959 24.4125 523.033 22.8718L510.08 76.6857H494.692L480.854 22.7618C481.149 27.2371 481.297 32.2626 481.297 37.8384C481.297 43.7811 481.149 49.2468 480.854 54.2357L479.193 84.8293H463.362L469.34 8.67551H490.043L502.663 61.1688L514.509 8.67551H535.432L541.3 84.8293Z"
    fill="black" />
  <mask id="mask0_1190_10405" style="mask-type:alpha" maskUnits="userSpaceOnUse" x="0" y="4"
    width="88" height="89">
    <path
      d="M78.417 4.99509H9.22553C4.13041 4.99509 0 9.10096 0 14.1658V82.9463C0 88.0112 4.13041 92.117 9.22553 92.117H78.417C83.5121 92.117 87.6426 88.0112 87.6426 82.9463V14.1658C87.6426 9.10096 83.5121 4.99509 78.417 4.99509Z"
      fill="#D9D9D9" />
  </mask>
  <g mask="url(#mask0_1190_10405)">
    <path d="M0 4.99509H39.2085V32.5073C39.2085 33.7735 38.1759 34.7999 36.9021 34.7999H0V4.99509Z"
      fill="#FB5141" />
    <path d="M0 41.678H36.9021C38.1759 41.678 39.2085 42.7044 39.2085 43.9707V92.117H0V41.678Z"
      fill="#94D2BD" />
    <path
      d="M46.125 64.6048C46.125 63.3386 47.1576 62.3121 48.4314 62.3121H87.6399V92.117H46.125V64.6048Z"
      fill="#005F73" />
    <path
      d="M46.125 4.99509H87.6399V55.4341H48.4314C47.1576 55.4341 46.125 54.4076 46.125 53.1414V4.99509Z"
      fill="#FFBD41" />
  </g>
</svg>
